HIERARCHY
ROOT hip
{
	OFFSET 0.00000 0.00000 0.00000
	CHANNELS 6 Xposition Yposition Zposition Zrotation Yrotation Xrotation 
	JOINT lhipjoint
	{
		OFFSET 0 0 0
		CHANNELS 3 Zrotation Yrotation Xrotation
		JOINT lfemur
		{
			OFFSET 1.57314 -1.85774 0.63783
			CHANNELS 3 Zrotation Yrotation Xrotation
			JOINT ltibia
			{
				OFFSET 2.57982 -7.08799 0.00000
				CHANNELS 3 Zrotation Yrotation Xrotation
				JOINT lfoot
				{
					OFFSET 2.63993 -7.25315 0.00000
					CHANNELS 3 Zrotation Yrotation Xrotation
					JOINT ltoes
					{
						OFFSET 0.16864 -0.46332 2.12791
						CHANNELS 3 Zrotation Yrotation Xrotation
						End Site
						{
							OFFSET 0.00000 -0.00000 1.09718
						}
					}
				}
			}
		}
	}
	JOINT rhipjoint
	{
		OFFSET 0 0 0
		CHANNELS 3 Zrotation Yrotation Xrotation
		JOINT rfemur
		{
			OFFSET -1.56006 -1.85774 0.63784
			CHANNELS 3 Zrotation Yrotation Xrotation
			JOINT rtibia
			{
				OFFSET -2.54246 -6.98536 0.00000
				CHANNELS 3 Zrotation Yrotation Xrotation
				JOINT rfoot
				{
					OFFSET -2.65791 -7.30256 0.00000
					CHANNELS 3 Zrotation Yrotation Xrotation
					JOINT rtoes
					{
						OFFSET -0.18435 -0.50650 2.16316
						CHANNELS 3 Zrotation Yrotation Xrotation
						End Site
						{
							OFFSET -0.00000 -0.00000 1.11780
						}
					}
				}
			}
		}
	}
	JOINT lowerback
	{
		OFFSET 0 0 0
		CHANNELS 3 Zrotation Yrotation Xrotation
		JOINT upperback
		{
			OFFSET -0.00136 1.92812 -0.29638
			CHANNELS 3 Zrotation Yrotation Xrotation
			JOINT thorax
			{
				OFFSET -0.00528 1.96223 -0.02928
				CHANNELS 3 Zrotation Yrotation Xrotation
				JOINT lowerneck
				{
					OFFSET 0 0 0
					CHANNELS 3 Zrotation Yrotation Xrotation
					JOINT upperneck
					{
						OFFSET -0.01015 1.75586 0.07797
						CHANNELS 3 Zrotation Yrotation Xrotation
						JOINT head
						{
							OFFSET 0.05540 1.72452 0.04558
							CHANNELS 3 Zrotation Yrotation Xrotation
							End Site
							{
								OFFSET 0.02170 1.79958 0.00864
							}
						}
					}
				}
				JOINT lclavicle
				{
					OFFSET 0 0 0
					CHANNELS 3 Zrotation Yrotation Xrotation
					JOINT lhumerus
					{
						OFFSET 3.16292 1.29277 -0.65728
						CHANNELS 3 Zrotation Yrotation Xrotation
						JOINT lradius
						{
							OFFSET 5.52302 -0.00000 -0.00000
							CHANNELS 3 Zrotation Yrotation Xrotation
							JOINT lwrist
							{
								OFFSET 3.58675 -0.00000 -0.00000
								CHANNELS 3 Zrotation Yrotation Xrotation
								JOINT lhand
								{
									OFFSET 0 0 0
									CHANNELS 3 Zrotation Yrotation Xrotation
									JOINT lfingers
									{
										OFFSET 0.53641 -0.00000 -0.00000
										CHANNELS 3 Zrotation Yrotation Xrotation
										End Site
										{
											OFFSET 0.43247 -0.00000 -0.00000
										}
									}
								}
								JOINT lthumb
								{
									OFFSET 0 0 0
									CHANNELS 3 Zrotation Yrotation Xrotation
									End Site
									{
										OFFSET 0.43907 -0.00000 0.43907
									}
								}
							}
						}
					}
				}
				JOINT rclavicle
				{
					OFFSET 0 0 0
					CHANNELS 3 Zrotation Yrotation Xrotation
					JOINT rhumerus
					{
						OFFSET -3.08296 1.43376 -0.52927
						CHANNELS 3 Zrotation Yrotation Xrotation
						JOINT rradius
						{
							OFFSET -5.84780 -0.00000 0.00000
							CHANNELS 3 Zrotation Yrotation Xrotation
							JOINT rwrist
							{
								OFFSET -3.62717 -0.00000 -0.00000
								CHANNELS 3 Zrotation Yrotation Xrotation
								JOINT rhand
								{
									OFFSET 0 0 0
									CHANNELS 3 Zrotation Yrotation Xrotation
									JOINT rfingers
									{
										OFFSET -0.65052 -0.00000 -0.00000
										CHANNELS 3 Zrotation Yrotation Xrotation
										End Site
										{
											OFFSET -0.52446 -0.00000 -0.00000
										}
									}
								}
								JOINT rthumb
								{
									OFFSET 0 0 0
									CHANNELS 3 Zrotation Yrotation Xrotation
									End Site
									{
										OFFSET -0.53247 -0.00000 0.53247
									}
								}
							}
						}
					}
				}
			}
		}
	}
}
MOTION
Frames: 12
Frame Time: 0.033333
9.9934 18.0108 -23.4822 4.8399 -28.0158 2.2598 -0.0000 0.0000 -0.0000 -28.0537 -3.8861 4.3232 0.7477 5.5277 15.4243 0.3504 1.8835 -12.0343 1.6501 -8.0948 -23.0049 0.0000 -0.0000 -0.0000 10.9359 19.2965 -25.2284 -4.0311 -12.2029 36.4792 0.3917 -14.6314 -15.6607 -0.0079 0.5450 -1.5094 -5.2751 -1.5142 12.1193 -1.0015 -2.6974 1.7773 2.4209 -1.2790 -4.7149 0.5327 1.7368 -4.0988 0.6905 2.2464 5.0585 0.1947 1.1402 2.2868 0.0000 0.0000 -0.0000 -76.4417 -22.6192 31.9812 13.9604 -22.7055 -2.8277 -0.0000 0.0000 -9.0681 37.0176 14.2945 10.5472 -7.1291 -0.0000 0.0000 9.2201 47.4643 0.5652 0.0000 0.0000 0.0000 84.1915 -3.5101 23.4994 -15.1868 24.3997 -3.2992 0.0000 0.0000 14.0944 -22.1545 12.9035 -5.1907 7.1291 0.0000 0.0000 3.5546 -16.1088 2.4282
9.9142 18.0188 -23.3385 4.5593 -27.9499 2.5058 -0.0000 0.0000 -0.0000 -27.7474 -3.6879 5.0553 0.6901 5.3149 14.8122 0.3363 1.6490 -11.6869 1.5954 -7.9661 -22.6131 0.0000 -0.0000 0.0000 10.9966 19.8416 -25.0796 -3.4910 -11.4520 33.8405 0.4765 -15.2521 -15.5155 -0.0038 0.3617 -1.0032 -4.7482 -1.4604 12.0303 -1.1336 -2.5724 1.7618 1.9526 -1.2251 -4.7249 1.4276 1.8626 -4.3266 0.5616 2.3626 4.7607 0.0069 1.2121 2.2445 0.0000 0.0000 -0.0000 -75.7483 -23.0011 33.5168 14.3868 -23.3065 -2.9913 -0.0000 0.0000 -10.1292 37.1917 13.9366 10.3576 -7.1287 -0.0000 0.0000 9.3815 47.0622 0.4815 0.0000 0.0000 0.0000 84.7914 -3.6732 22.2659 -14.9653 24.0888 -3.2062 0.0000 0.0000 15.2225 -21.1426 14.6058 -5.5689 7.1287 0.0000 0.0000 4.3231 -14.4052 3.1205
9.8340 18.0324 -23.1903 4.4933 -28.2018 2.7219 -0.0000 0.0000 -0.0000 -27.7630 -3.2096 5.6232 0.6412 5.1251 14.2674 0.3235 1.5428 -11.4220 1.6399 -8.0713 -22.9327 0.0000 -0.0000 0.0000 10.7800 20.6544 -25.0251 -3.0203 -10.7293 31.3847 0.5182 -15.2771 -14.8359 -0.0011 0.1849 -0.5140 -4.5659 -1.4791 11.6384 -1.1126 -2.5684 1.7917 1.8355 -1.2288 -4.4886 1.6317 2.0911 -4.4738 0.4482 2.6584 4.5645 -0.0518 1.3611 2.2140 0.0000 0.0000 -0.0000 -75.3713 -23.1982 34.0746 14.8194 -23.9069 -3.1596 -0.0000 0.0000 -10.5757 37.5949 13.0490 9.8624 -7.1280 -0.0000 0.0000 9.7400 46.0531 0.2556 0.0000 0.0000 0.0000 84.8528 -3.7602 22.0840 -14.8522 23.9322 -3.1609 0.0000 0.0000 15.5433 -20.4269 14.4919 -5.3237 7.1280 0.0000 0.0000 4.8047 -14.6006 3.4502
9.7525 18.0347 -23.0541 4.5527 -28.8325 2.8776 -0.0000 -0.0000 -0.0000 -27.8604 -2.3802 6.0874 0.5850 4.8980 13.6183 0.2951 1.7017 -11.0292 1.8281 -8.4981 -24.2385 -0.0000 0.0000 0.0000 10.4112 21.7849 -24.9566 -2.5723 -9.9690 28.8809 0.5209 -14.7065 -13.4420 -0.0007 -0.1578 0.4307 -4.7094 -1.4973 11.1914 -0.9760 -2.5951 1.8466 2.0231 -1.2441 -4.1736 1.1161 2.3053 -4.4303 0.5440 2.9738 4.5017 0.0768 1.5136 2.1777 0.0000 0.0000 -0.0000 -75.1080 -23.3366 33.7287 15.2940 -24.5585 -3.3496 -0.0000 0.0000 -10.7551 37.7660 12.9921 9.8804 -7.1267 -0.0000 0.0000 9.9036 46.0111 0.2496 0.0000 0.0000 0.0000 84.5847 -3.5688 22.3617 -14.5815 23.5550 -3.0537 0.0000 0.0000 15.7807 -20.1996 14.5789 -5.2905 7.1267 0.0000 0.0000 4.9631 -14.5316 3.5719
9.6672 18.0351 -22.9392 4.6507 -29.0128 3.0880 0.0000 -0.0000 -0.0000 -27.8252 -2.0392 6.6255 0.5233 4.6350 12.8687 0.2556 1.8903 -10.4368 2.0446 -8.9584 -25.6669 -0.0000 0.0000 0.0000 9.9228 22.9742 -24.9656 -2.1794 -9.2294 26.5118 0.5832 -14.7868 -12.2278 -0.0007 -0.1795 0.4929 -5.1519 -1.7140 11.0875 -0.5900 -2.9257 1.7065 2.7001 -1.4043 -4.2039 0.1290 2.6819 -3.8918 0.7120 3.5373 3.8596 0.2997 1.7838 1.8507 0.0000 -0.0000 -0.0000 -75.1307 -23.2242 33.2246 15.7509 -25.1765 -3.5361 -0.0000 0.0000 -11.2388 37.7790 12.9682 9.8671 -7.1258 -0.0000 0.0000 9.9150 45.9838 0.2431 0.0000 0.0000 0.0000 83.8845 -3.5136 23.1319 -14.3351 23.2134 -2.9601 0.0000 0.0000 15.8440 -20.1550 15.0495 -5.4437 7.1258 0.0000 0.0000 5.0131 -14.0417 3.6606
9.5821 18.0340 -22.7829 4.7873 -29.4054 3.1274 0.0000 -0.0000 -0.0000 -28.0230 -1.3702 7.3009 0.4723 4.4058 12.2186 0.2329 1.9905 -10.0730 2.1684 -9.2084 -26.4513 -0.0000 0.0000 0.0000 9.3919 24.2569 -24.6946 -1.8352 -8.5124 24.2761 0.6263 -14.9349 -11.5320 -0.0000 -0.0872 0.2404 -5.3629 -1.7311 10.8597 -0.4031 -2.9542 1.6618 3.0040 -1.4202 -4.1027 -0.5699 2.4538 -4.1060 0.6690 3.2717 4.8877 0.4130 1.6387 2.2160 0.0000 -0.0000 -0.0000 -75.2738 -22.9733 33.1372 16.2830 -25.8951 -3.7639 -0.0000 0.0000 -11.4510 37.9551 12.5232 9.5997 -7.1259 -0.0000 -0.0000 10.0611 45.4688 0.1176 0.0000 0.0000 0.0000 83.5319 -3.6297 23.2778 -14.1970 23.0129 -2.9030 0.0000 0.0000 16.1792 -19.8202 15.6106 -5.5413 7.1259 0.0000 0.0000 5.2618 -13.4896 3.9081
9.4978 18.0345 -22.6264 4.7750 -29.7170 3.1631 0.0000 -0.0000 -0.0000 -28.0589 -0.7195 8.1184 0.4165 4.1402 11.4689 0.2047 2.1281 -9.6046 2.3909 -9.6368 -27.8104 -0.0000 0.0000 0.0000 8.9547 25.6125 -24.2798 -1.5513 -7.8594 22.2826 0.6126 -14.8160 -11.5360 -0.0028 -0.3513 0.9660 -5.3301 -1.6782 10.7825 -0.3387 -2.8728 1.6642 3.0385 -1.3820 -4.0631 0.0258 2.8612 -4.4108 0.2624 3.8019 4.3417 0.1998 1.9039 2.1082 0.0000 -0.0000 -0.0000 -75.4109 -22.7219 33.0481 16.8381 -26.6357 -4.0094 0.0000 0.0000 -11.2425 38.0837 12.2414 9.4336 -7.1253 -0.0000 -0.0000 10.1678 45.1438 0.0365 0.0000 0.0000 0.0000 83.5161 -3.8055 23.0756 -14.1323 22.9193 -2.8768 0.0000 0.0000 16.5264 -19.2648 15.8149 -5.4431 7.1253 0.0000 0.0000 5.6435 -13.3377 4.2128
9.4102 18.0290 -22.4776 4.6342 -29.8636 3.1670 -0.0000 -0.0000 -0.0000 -27.8704 -0.1287 9.2368 0.3390 3.7408 10.3465 0.1638 2.2743 -8.8383 2.8070 -10.3757 -30.2041 -0.0000 0.0000 0.0000 9.0101 25.5632 -24.2252 -1.3422 -7.3346 20.7095 0.4591 -13.3686 -11.4464 -0.0059 -0.5005 1.3743 -5.0571 -1.6763 10.7265 -0.3188 -2.8245 1.7191 2.9068 -1.3655 -3.9882 -0.8117 1.8624 -4.4057 0.1980 2.5255 6.7220 0.3020 1.2385 2.8930 0.0000 -0.0000 -0.0000 -75.2582 -22.6993 33.2863 17.3171 -27.2701 -4.2291 0.0000 0.0000 -11.6258 37.8749 12.6502 9.6663 -7.1258 -0.0000 -0.0000 9.9908 45.6114 0.1523 0.0000 0.0000 0.0000 83.5327 -4.0456 23.2470 -14.1432 22.9236 -2.8736 0.0000 0.0000 16.4003 -19.1253 15.6075 -5.3326 7.1258 0.0000 0.0000 5.7283 -13.5692 4.2497
9.3193 18.0180 -22.3295 4.8735 -29.9545 2.9358 -0.0000 -0.0000 -0.0000 -27.9776 0.4171 10.4428 0.2659 3.3158 9.1575 0.1254 2.3467 -7.9854 3.2598 -11.1040 -32.6325 -0.0000 0.0000 0.0000 8.7807 25.4731 -24.2573 -1.1863 -6.9112 19.4509 0.3405 -12.1844 -11.4712 -0.0021 -0.3038 0.8348 -5.0494 -1.7317 10.5440 -0.4168 -2.8944 1.8292 2.7933 -1.4001 -3.7712 -1.1540 2.0257 -3.8740 0.7116 2.7278 5.8490 0.5155 1.3518 2.4873 0.0000 -0.0000 -0.0000 -74.9638 -22.7432 33.3729 17.6942 -27.7599 -4.4032 -0.0000 0.0000 -12.3342 37.6422 12.7950 9.6929 -7.1249 -0.0000 0.0000 9.7734 45.7513 0.1830 0.0000 0.0000 0.0000 83.6040 -4.1200 23.2655 -13.9874 22.7049 -2.8157 0.0000 0.0000 16.4639 -19.2850 15.4525 -5.3270 7.1249 0.0000 0.0000 5.6162 -13.7134 4.1462
9.2255 18.0039 -22.1649 5.3350 -30.0675 2.5607 -0.0000 -0.0000 -0.0000 -28.3195 1.0252 11.7347 0.1993 2.8737 7.9263 0.0929 2.3959 -7.1629 3.4304 -11.3611 -33.5083 -0.0000 0.0000 0.0000 8.4092 25.3699 -24.2299 -1.0695 -6.5740 18.4591 0.2198 -11.0218 -11.7926 -0.0020 0.2932 -0.8058 -5.3348 -1.8143 10.3940 -0.4847 -3.0260 1.9294 2.8914 -1.4649 -3.5594 -1.2843 2.1855 -3.8332 0.7853 2.9460 5.5604 0.5635 1.4602 2.3784 0.0000 -0.0000 -0.0000 -74.9637 -22.4209 33.1668 18.1216 -28.3108 -4.6056 -0.0000 0.0000 -12.8730 37.6751 12.8296 9.7296 -7.1240 -0.0000 0.0000 9.8071 45.7988 0.1952 0.0000 0.0000 0.0000 83.4649 -4.2382 23.5576 -13.8755 22.5467 -2.7739 0.0000 0.0000 16.3704 -19.2454 15.0557 -5.1807 7.1240 0.0000 0.0000 5.6295 -14.1324 4.1031
9.1308 17.9893 -21.9988 5.3500 -30.4374 2.4635 -0.0000 0.0000 -0.0000 -28.2854 1.9113 13.0051 0.1350 2.3696 6.5282 0.0621 2.4679 -6.2864 3.2122 -11.0307 -32.3843 -0.0000 -0.0000 0.0000 8.4987 25.6053 -24.2300 -0.9877 -6.3279 17.7432 0.1233 -10.1149 -12.1825 -0.0439 1.3497 -3.7142 -5.3139 -1.7123 10.3095 -0.4242 -2.8688 1.9338 2.9329 -1.3891 -3.5157 -1.0432 2.2039 -4.2389 0.4368 2.9824 5.9139 0.4222 1.4699 2.5787 0.0000 -0.0000 -0.0000 -75.1389 -22.1198 33.2111 18.5303 -28.8346 -4.8045 -0.0000 0.0000 -13.3264 37.5873 13.0546 9.8634 -7.1238 -0.0000 0.0000 9.7330 46.0583 0.2566 0.0000 0.0000 0.0000 83.2488 -4.6347 23.9117 -13.8912 22.5657 -2.7777 0.0000 0.0000 16.0450 -19.1178 14.6160 -4.9965 7.1238 0.0000 0.0000 5.7014 -14.6060 4.0969
9.0415 17.9780 -21.8393 5.2169 -30.5809 2.4447 -0.0000 0.0000 -0.0000 -28.0733 2.6170 14.4400 0.0753 1.7764 4.8894 0.0330 2.6169 -5.3723 2.8726 -10.4855 -30.5644 0.0000 -0.0000 0.0000 8.7704 25.6364 -24.2159 -0.9332 -6.1588 17.2545 0.0470 -9.5515 -12.7664 -0.0945 1.9782 -5.4499 -5.0090 -1.7249 10.2404 -0.3905 -2.8352 1.9572 2.8023 -1.3757 -3.4655 -0.8561 2.2739 -4.5530 0.2436 3.0802 6.1817 0.3387 1.5134 2.7318 0.0000 -0.0000 -0.0000 -75.0420 -21.9792 33.3128 18.8464 -29.2366 -4.9617 -0.0000 0.0000 -13.9308 38.5408 11.1726 8.7747 -7.1235 -0.0000 0.0000 10.5284 43.8971 -0.2900 0.0000 0.0000 0.0000 83.1944 -4.8080 24.1599 -13.8006 22.4348 -2.7425 0.0000 0.0000 16.0374 -19.0992 13.9707 -4.7751 7.1235 0.0000 0.0000 5.6944 -15.2831 4.0074
